<svg xmlns="http://www.w3.org/2000/svg" width="24.317" height="24" viewBox="0 0 24.317 24">
  <g id="Group_2" data-name="Group 2" transform="translate(-887 -912)">
    <g id="Group_4" data-name="Group 4">
      <path id="Shape" d="M4.053,24A4.027,4.027,0,0,1,0,20V4A4.027,4.027,0,0,1,4.053,0H20.264a4.027,4.027,0,0,1,4.053,4V20a4.027,4.027,0,0,1-4.053,4Z" transform="translate(887 912)" fill="#ff7531"/>
    </g>
    <g id="Instagram_Black" data-name="Instagram/Black" transform="translate(890.758 915.686)">
      <g id="Instagram_Black-2" data-name="Instagram/Black" transform="translate(0 0)">
        <path id="Instagram" d="M5,16.949a6.277,6.277,0,0,1-2.063-.4,4.159,4.159,0,0,1-1.505-.98,4.161,4.161,0,0,1-.98-1.506A6.282,6.282,0,0,1,.051,12C.01,11.092,0,10.789,0,8.5S.01,5.908.051,5a6.282,6.282,0,0,1,.4-2.063,4.16,4.16,0,0,1,.98-1.505A4.16,4.16,0,0,1,2.932.446,6.282,6.282,0,0,1,5,.051C5.908.01,6.211,0,8.5,0s2.591.01,3.5.051a6.282,6.282,0,0,1,2.063.4,4.161,4.161,0,0,1,1.506.98,4.159,4.159,0,0,1,.98,1.505A6.277,6.277,0,0,1,16.949,5C16.99,5.9,17,6.2,17,8.5s-.01,2.6-.051,3.5a6.272,6.272,0,0,1-.4,2.063,4.343,4.343,0,0,1-2.486,2.486,6.272,6.272,0,0,1-2.063.4C11.1,16.99,10.8,17,8.5,17S5.9,16.99,5,16.949Zm.07-15.368a4.71,4.71,0,0,0-1.578.293,2.634,2.634,0,0,0-.977.636,2.634,2.634,0,0,0-.636.977,4.71,4.71,0,0,0-.293,1.578c-.041.9-.049,1.164-.049,3.435s.009,2.539.049,3.435a4.71,4.71,0,0,0,.293,1.578,2.634,2.634,0,0,0,.636.977,2.634,2.634,0,0,0,.977.636,4.71,4.71,0,0,0,1.578.293c.9.041,1.169.05,3.435.05s2.535-.009,3.435-.05a4.71,4.71,0,0,0,1.578-.293,2.816,2.816,0,0,0,1.613-1.613,4.71,4.71,0,0,0,.293-1.578c.041-.9.05-1.169.05-3.435s-.009-2.535-.05-3.435a4.71,4.71,0,0,0-.293-1.578,2.634,2.634,0,0,0-.636-.977,2.634,2.634,0,0,0-.977-.636,4.71,4.71,0,0,0-1.578-.293c-.9-.041-1.164-.049-3.435-.049S5.96,1.54,5.065,1.581Zm.348,10.006A4.366,4.366,0,1,1,8.5,12.865,4.336,4.336,0,0,1,5.414,11.587ZM5.667,8.5A2.833,2.833,0,1,0,8.5,5.667,2.837,2.837,0,0,0,5.667,8.5Zm6.35-4.537a1.02,1.02,0,1,1,1.02,1.02A1.02,1.02,0,0,1,12.017,3.963Z" fill="#fff" stroke="#fcf6f6" stroke-width="1"/>
      </g>
    </g>
  </g>
</svg>
