<svg xmlns="http://www.w3.org/2000/svg" width="24" height="24" viewBox="0 0 24 24">
  <g id="Group_3" data-name="Group 3" transform="translate(-941 -912)">
    <g id="instagram-square" transform="translate(941 912)">
      <path id="Shape" d="M4,24a4,4,0,0,1-4-4V4A4,4,0,0,1,4,0H20a4,4,0,0,1,4,4V20a4,4,0,0,1-4,4Z" fill="#ff7531"/>
    </g>
    <g id="Twitter_Black" data-name="Twitter/Black" transform="translate(945.758 916.686)">
      <g id="Twitter_Black-2" data-name="Twitter/Black">
        <path id="Twitter" d="M15,1.657a5.525,5.525,0,0,1-1.767.556A3.5,3.5,0,0,0,14.586.259a5.7,5.7,0,0,1-1.955.856A2.9,2.9,0,0,0,10.385,0,3.33,3.33,0,0,0,7.309,3.534a4.021,4.021,0,0,0,.079.8A8.42,8.42,0,0,1,1.044.645,3.939,3.939,0,0,0,.628,2.424,3.7,3.7,0,0,0,2,5.365,2.783,2.783,0,0,1,.6,4.925v.043a3.449,3.449,0,0,0,2.47,3.465,2.642,2.642,0,0,1-.811.124A2.68,2.68,0,0,1,1.682,8.5a3.166,3.166,0,0,0,2.875,2.453A5.689,5.689,0,0,1,.734,12.462,5.508,5.508,0,0,1,0,12.413,7.928,7.928,0,0,0,4.717,14c5.661,0,8.756-5.385,8.756-10.055,0-.154,0-.307-.008-.458A6.818,6.818,0,0,0,15,1.657" fill="#fff" stroke="#fff" stroke-width="1"/>
      </g>
    </g>
  </g>
</svg>
