<svg width="152" height="41" viewBox="0 0 152 41" fill="none" xmlns="http://www.w3.org/2000/svg">
<path fill-rule="evenodd" clip-rule="evenodd" d="M142.081 37.1154C142.081 38.4316 141.022 39.4953 139.711 39.4953C138.402 39.4953 137.342 38.4316 137.342 37.1154C137.342 35.8048 138.402 34.7433 139.711 34.7433C141.022 34.7433 142.081 35.8048 142.081 37.1154" fill="#1A1919"/>
<path fill-rule="evenodd" clip-rule="evenodd" d="M136.988 21.5264C137.242 22.5183 137.845 23.3177 138.384 24.1532C138.787 24.78 139.192 25.4059 139.6 26.0297C139.68 26.1525 139.776 26.2616 139.868 26.3798C140.901 25.9258 141.746 25.8686 142.766 25.8776C143.502 26.0486 144.257 26.1559 145.008 26.2368C145.192 26.2573 145.444 26.1121 145.591 25.9669C146.05 25.512 146.741 25.3291 147.232 25.7234C147.884 26.2458 148.651 26.4485 149.407 26.6634C150.367 26.9357 150.804 27.6195 151.063 28.4861C151.11 28.639 151.054 28.825 151.047 28.9848C150.639 29.1797 150.282 29.1381 149.868 29.0255C148.764 28.7236 147.637 28.5088 146.521 28.2544C146.304 28.2071 146.085 28.0607 145.879 28.0831C145.527 28.1226 145.173 27.8331 144.853 27.9873C144.145 28.3262 143.462 28.1742 142.686 28.2364C142.433 28.2553 141.947 28.2364 141.733 28.3533C140.965 28.7721 140.252 28.773 139.409 28.7855C139.116 28.7889 139.061 28.9049 138.769 28.9173C138.645 28.9229 138.414 28.8937 138.337 28.8104C137.853 28.288 137.183 28.5526 136.798 27.9615C136.542 27.5707 136.269 27.4366 135.855 27.4357C135.298 27.4335 134.841 27.2162 134.287 27.2432C133.831 27.2656 133.465 26.9796 133.141 26.927C132.99 26.7346 131.664 26.4967 131.416 26.2243C131.399 26.2965 131.381 26.3673 131.364 26.4373C131.248 26.9068 131.14 27.3232 131.052 27.7463C130.966 28.1552 130.928 28.574 130.839 28.9826C130.818 29.0771 130.685 29.2099 130.596 29.2167C130.28 29.2413 130.449 29.2301 130.134 29.1885C129.681 29.1291 129.894 29.0983 129.442 29.0277C129.273 29.0019 129.004 28.9748 128.939 29.0635C128.802 29.2519 128.752 29.4689 128.855 29.7662C129.296 31.036 129.713 32.3205 130.042 33.6242C130.314 34.7072 130.472 35.8207 130.641 36.9264C130.712 37.3946 130.868 37.7917 131.13 38.1881C131.277 38.408 131.248 38.7578 131.254 39.0494C131.254 39.1169 131.074 39.2419 130.97 39.2509C129.89 39.3398 128.811 39.4232 127.73 39.4807C127.164 39.5099 126.597 39.4851 126.017 39.4851C125.922 39.1213 126.079 38.9257 126.388 38.8321C126.623 38.7624 126.861 38.7164 127.097 38.6642C127.178 38.6465 127.29 38.6654 127.333 38.6182C127.756 38.1499 128.471 38.0103 128.739 37.3732C128.775 37.2864 128.784 37.1692 128.763 37.0784C128.64 36.5896 128.548 36.0785 127.988 35.8658C127.942 35.8477 127.479 34.6127 127.45 34.553C127.039 33.7399 127.365 34.0204 126.954 33.2067C126.935 33.1706 126.917 33.132 126.908 33.0929C126.667 32.0279 126.221 31.1983 125.899 30.2705C125.495 29.1123 125.735 27.9189 125.547 26.7582C125.48 26.345 125.646 25.9824 125.684 25.6096C125.826 24.2172 126.628 23.0923 127.059 21.8237C127.237 21.3038 127.293 20.8069 127.302 20.2522C127.318 19.33 127.553 18.4102 127.72 17.4939C127.931 16.3456 128.057 15.1948 128.052 14.0229C128.048 13.2294 128.15 12.43 128.249 11.6409C128.326 11.0184 128.04 10.6378 127.396 10.612C127.274 10.6073 127.151 10.5927 127.03 10.5849C126.748 10.5657 126.54 10.4509 126.469 10.1549C126.395 9.86201 126.211 9.78458 125.924 9.82376C124.966 9.95653 124.007 10.1154 123.043 10.182C122.505 10.218 121.932 10.1729 121.418 10.0196C120.115 9.63471 118.859 9.81132 117.594 10.1493C117.151 10.2687 116.212 9.96337 115.85 9.56724C116.233 9.17546 116.611 8.77125 117.015 8.39502C117.098 8.31635 117.296 8.30174 117.417 8.33687C118.462 8.6419 119.535 8.68667 120.595 8.56634C121.256 8.4911 121.933 8.29832 122.531 8.01008C123.29 7.64193 124.063 7.6295 124.859 7.6239C125.092 7.62297 125.323 7.56202 125.554 7.52378C125.62 7.51383 125.694 7.46066 125.747 7.47652C126.224 7.62079 126.572 7.32105 126.957 7.14008C127.494 6.88543 128.026 6.61989 128.578 6.40597C128.874 6.29092 129.204 6.24739 129.523 6.2191C129.993 6.17619 131.536 5.30495 131.4 4.84788C131.323 4.58234 131.32 4.32551 131.171 4.09137C131.105 3.16696 131.039 2.65703 131.15 1.94997C131.275 1.14962 131.727 0.760019 132.438 0.464009C133.469 0.0361631 134.426 0.140948 135.382 0.621653C135.505 0.683529 135.619 0.797331 135.691 0.914242C136.196 1.74972 136.075 2.84173 136.106 3.79536C136.113 4.04069 136.017 4.28726 135.995 4.52917C135.896 5.60096 135.05 6.32264 135.766 6.94295C136.504 7.58254 137.322 8.91645 138.064 9.55138C138.2 9.66829 138.278 9.87009 138.352 10.0455C138.639 10.7289 138.898 11.4235 139.196 12.1001C139.402 12.5718 139.738 12.9996 139.869 13.4872C140.103 14.3609 140.721 14.9576 141.201 15.6634C141.647 16.3151 141.973 17.0514 142.35 17.7495C142.78 18.5433 143.203 19.3402 143.644 20.1272C143.911 20.6067 144.353 20.8825 144.83 21.1346C145.355 21.4104 145.879 21.7167 146.33 22.0973C146.613 22.3358 146.816 22.7176 146.942 23.0733C146.993 23.2185 146.778 23.5021 146.621 23.6597C146.413 23.8671 146.267 23.6429 146.124 23.5012C145.697 23.0755 145.348 22.55 144.714 22.3868C144.665 22.3731 144.615 22.3665 144.457 22.337C144.662 22.7052 144.818 22.9844 144.973 23.2661C144.93 23.2928 144.89 23.3186 144.848 23.3444C144.235 22.9722 143.628 22.5251 143.316 21.8983C142.6 20.4692 141.552 19.3209 140.425 18.2495C139.515 17.3835 138.946 16.3298 138.406 15.1861C138.049 15.5101 137.787 15.3167 137.497 15.0667C137.195 14.8056 136.845 14.6016 136.519 14.3755C136.127 14.8472 135.747 15.2884 135.387 15.7464C135.038 16.1936 134.945 17.4298 135.273 17.8036" fill="#1A1919"/>
<path fill-rule="evenodd" clip-rule="evenodd" d="M127.988 35.8656C127.988 35.8656 126.197 31.9672 125.975 30.4809C125.753 28.9949 126.367 30.7862 126.367 30.7862L128.494 33.7684L127.988 35.8656Z" fill="#1A1919"/>
<path fill-rule="evenodd" clip-rule="evenodd" d="M139.341 28.8102C139.341 28.8102 142.494 28.7586 145.427 28.0133C148.361 27.268 143 27.6169 143 27.6169L139.341 28.7325" fill="#1A1919"/>
<path fill-rule="evenodd" clip-rule="evenodd" d="M131.417 26.1344L133.356 25.9948L139.392 27.6371V28.717C139.392 28.717 139.414 29.3258 138.533 28.8961C137.721 28.5009 132.431 26.6409 132.431 26.6409L134.452 27.3029L131.417 26.2245L135.235 27.1632L133.617 25.9948" fill="#1A1919"/>
<path fill-rule="evenodd" clip-rule="evenodd" d="M19.5143 25.3738C19.3867 25.8085 19.0298 26.1151 18.5195 26.1151H15.688C15.2035 26.1151 14.7954 25.8085 14.6933 25.3483L12.1427 12.3926C12.0151 11.7281 11.8875 11.064 11.7854 10.3995H11.25C11.1222 11.064 11.0204 11.7539 10.8673 12.3926L8.34186 25.3483C8.26551 25.8085 7.83193 26.1151 7.34713 26.1151H4.49048C4.00568 26.1151 3.62331 25.8085 3.52119 25.3738L0.154297 8.48289H2.85793L5.3831 21.924C5.51067 22.6142 5.58733 23.3552 5.68944 24.173H6.27604C6.37815 23.3552 6.5054 22.6397 6.65873 21.924L9.1839 9.32614C9.2857 8.84046 9.64294 8.48289 10.1532 8.48289H12.8826C13.3671 8.48289 13.7498 8.84046 13.8516 9.32614L16.3513 21.9498C16.5043 22.6907 16.6319 23.4572 16.734 24.173H17.3206C17.4481 23.4572 17.5248 22.6652 17.652 21.9753L20.1772 8.48289H22.8812L19.5143 25.3738Z" fill="#1A1919"/>
<path fill-rule="evenodd" clip-rule="evenodd" d="M36.365 25.9615C34.0437 26.1661 31.3401 26.1661 28.8149 26.1661C26.6212 26.1661 25.295 24.9395 25.2695 22.9974V11.6004C25.295 9.65859 26.6466 8.43195 28.8149 8.43195C31.3401 8.43195 34.0437 8.43195 36.365 8.63624L36.2374 10.6293H29.2485C28.2283 10.6293 27.8456 11.064 27.8456 12.2648V15.7915H35.2681V17.861H27.8456V22.3587C27.8456 23.5595 28.2283 23.9939 29.2485 23.9939H36.2374L36.365 25.9615Z" fill="#1A1919"/>
<path fill-rule="evenodd" clip-rule="evenodd" d="M62.714 8.48301C63.3773 8.48301 63.7345 8.86639 63.7599 9.53086L64.4738 26.1149H61.9235L61.3111 10.6039H60.8009L57.2301 23.1507C57.0767 23.7384 56.7198 24.0195 56.1332 24.0195H53.9141C53.3272 24.0195 52.9448 23.7384 52.7918 23.1507L49.1952 10.6039H48.7104L48.1238 26.1149H45.5986L46.2619 9.53086C46.2873 8.86639 46.6446 8.48301 47.3078 8.48301H50.139C50.7256 8.48301 51.0317 8.78959 51.2101 9.35176L54.1946 19.6754C54.4243 20.4932 54.6028 21.2599 54.7812 22.0519H55.2403C55.4191 21.2341 55.5975 20.4932 55.8526 19.6499L58.8114 9.35176C58.9899 8.78959 59.3217 8.48301 59.9337 8.48301H62.714Z" fill="#1A1919"/>
<path fill-rule="evenodd" clip-rule="evenodd" d="M71.0026 20.7998L69.3701 26.115H66.7686L72.2782 9.17306C72.4055 8.73838 72.7627 8.4831 73.2221 8.4831H75.8236C76.2572 8.4831 76.6399 8.73838 76.7417 9.17306L82.2768 26.115H79.6499L78.0173 20.7998H71.0026ZM75.2879 11.8816C75.1603 11.4214 74.9819 10.9106 74.8543 10.4504H74.1656L73.7575 11.8816L71.6916 18.5767H77.354L75.2879 11.8816Z" fill="#1A1919"/>
<path fill-rule="evenodd" clip-rule="evenodd" d="M87.088 17.9633C87.1901 18.5768 87.2668 19.1899 87.2668 19.7776V26.1151H84.7158V8.48289H87.2668V13.9003C87.2668 14.5903 87.2155 15.2547 87.088 15.8937H89.0778L94.2557 8.48289H97.036L92.062 15.6891C91.7302 16.1748 91.4754 16.4559 90.9906 16.9154V16.9922C91.5008 17.4269 91.9087 17.8865 92.215 18.3212L97.3674 26.1151H94.5362L89.0778 17.9633H87.088Z" fill="#1A1919"/>
<path fill-rule="evenodd" clip-rule="evenodd" d="M110.336 25.9615C108.014 26.1661 105.311 26.1661 102.786 26.1661C100.592 26.1661 99.2657 24.9395 99.2402 22.9974V11.6004C99.2657 9.65859 100.617 8.43195 102.786 8.43195C105.311 8.43195 108.014 8.43195 110.336 8.63624L110.208 10.6293H103.219C102.199 10.6293 101.816 11.064 101.816 12.2648V15.7915H109.239V17.861H101.816V22.3587C101.816 23.5595 102.199 23.9939 103.219 23.9939H110.208L110.336 25.9615Z" fill="#1A1919"/>
<path fill-rule="evenodd" clip-rule="evenodd" d="M4.28854 30.7506C3.77798 30.7506 3.52286 30.9903 3.52286 31.4381V32.9881H7.59119V35.0661H3.52286V39.4935H0.523438V30.8144C0.523438 29.3601 1.56038 28.4171 3.06009 28.4171C4.81493 28.4171 6.84133 28.4171 8.3249 28.6089L8.18151 30.7506H4.28854Z" fill="#E67738"/>
<path fill-rule="evenodd" clip-rule="evenodd" d="M19.2653 33.9791C19.2653 38.4706 17.9571 39.7174 14.3196 39.7174C10.6817 39.7174 9.38965 38.4706 9.38965 33.9791C9.38965 29.488 10.6817 28.2411 14.3196 28.2411C17.9571 28.2411 19.2653 29.488 19.2653 33.9791M12.5325 33.9791C12.5325 36.6964 12.9155 37.4156 14.3196 37.4156C15.7234 37.4156 16.1064 36.6964 16.1064 33.9791C16.1064 31.2622 15.7234 30.543 14.3196 30.543C12.9155 30.543 12.5325 31.2622 12.5325 33.9791" fill="#E67738"/>
<path fill-rule="evenodd" clip-rule="evenodd" d="M30.612 33.9791C30.612 38.4706 29.3038 39.7174 25.6662 39.7174C22.0284 39.7174 20.7363 38.4706 20.7363 33.9791C20.7363 29.488 22.0284 28.2411 25.6662 28.2411C29.3038 28.2411 30.612 29.488 30.612 33.9791M23.8791 33.9791C23.8791 36.6964 24.2621 37.4156 25.6662 37.4156C27.0704 37.4156 27.4531 36.6964 27.4531 33.9791C27.4531 31.2622 27.0704 30.543 25.6662 30.543C24.2621 30.543 23.8791 31.2622 23.8791 33.9791" fill="#E67738"/>
<path fill-rule="evenodd" clip-rule="evenodd" d="M37.9653 30.4903V39.1761H34.873V30.4903H31.6162V28.1793H41.2384V30.4903H37.9653Z" fill="#E67738"/>
<path fill-rule="evenodd" clip-rule="evenodd" d="M48.7565 33.8805C50.487 34.0211 51.0957 35.0203 51.0957 36.7382C51.0957 38.9558 49.9097 39.5491 47.2022 39.5491C44.9434 39.5491 43.6777 39.5333 42.1875 39.424V28.6493C43.5333 28.5396 44.6869 28.5241 46.6894 28.5241C49.6698 28.5241 50.7273 29.1177 50.7273 31.335C50.7273 32.881 50.1663 33.6617 48.7565 33.7869V33.8805ZM46.6093 32.9433C47.5868 32.9433 47.8592 32.7094 47.8592 31.7412C47.8592 30.804 47.5709 30.5853 46.5296 30.5853H45.1354V32.9433H46.6093ZM46.6735 37.4876C47.795 37.4876 48.0836 37.2379 48.0836 36.1604C48.0836 35.0203 47.795 34.7393 46.6414 34.7393H45.1354V37.4721L46.6735 37.4876Z" fill="#E67738"/>
<path fill-rule="evenodd" clip-rule="evenodd" d="M55.6695 36.8632L55.0125 39.4241H51.9365L54.9645 29.4143C55.077 28.9459 55.4934 28.6491 55.9741 28.6491H58.7621C59.2424 28.6491 59.6591 28.9459 59.7872 29.4143L62.7993 39.4241H59.723L59.0663 36.8632H55.6695ZM57.8005 31.9752C57.7204 31.6162 57.6241 31.21 57.5923 30.8509H57.1597C57.0955 31.21 57.0154 31.6162 56.9356 31.9752L56.2303 34.7394H58.5055L57.8005 31.9752Z" fill="#E67738"/>
<path fill-rule="evenodd" clip-rule="evenodd" d="M66.8519 36.4103C66.8519 36.8475 67.0923 37.0817 67.605 37.0817H71.3539L71.4982 39.2835C69.9283 39.471 68.1336 39.471 66.4193 39.471C64.7369 39.471 63.8398 38.5028 63.8398 37.0975V28.6492H66.8519V36.4103Z" fill="#E67738"/>
<path fill-rule="evenodd" clip-rule="evenodd" d="M75.8451 36.4103C75.8451 36.8475 76.0854 37.0817 76.5981 37.0817H80.3471L80.4914 39.2835C78.9214 39.471 77.1267 39.471 75.4125 39.471C73.73 39.471 72.833 38.5028 72.833 37.0975V28.6492H75.8451V36.4103Z" fill="#E67738"/>
<path fill-rule="evenodd" clip-rule="evenodd" d="M89.7974 39.2991C88.2274 39.4711 86.1445 39.4711 84.318 39.4711C82.8123 39.4711 81.8027 38.5497 81.8027 37.1598V30.9134C81.8027 29.5236 82.8282 28.6025 84.318 28.6025C86.1445 28.6025 88.2274 28.6025 89.7974 28.7741L89.6531 30.8821H85.5037C85.0551 30.8821 84.8148 31.1163 84.8148 31.5538V32.8655H89.0606V34.8799H84.8148V36.5195C84.8148 36.9569 85.0551 37.1911 85.5037 37.1911H89.6531L89.7974 39.2991Z" fill="#E67738"/>
<path fill-rule="evenodd" clip-rule="evenodd" d="M97.6777 39.4241L96.8926 36.176C96.7324 35.5514 96.4599 35.364 95.8509 35.364H94.4892V39.4241H91.5254V28.6491C92.9351 28.5087 93.8964 28.4929 95.9955 28.4929C99.0874 28.4929 100.401 29.2427 100.401 31.741C100.401 33.1308 99.8726 34.1771 98.2222 34.3487V34.4426C98.815 34.5362 99.6644 34.8643 99.9206 36.0979L100.834 39.4241H97.6777ZM95.931 33.2247C97.069 33.2247 97.3732 32.9592 97.3732 31.9285C97.3732 30.8977 97.069 30.6322 95.931 30.6322H94.4892V33.2247H95.931Z" fill="#E67738"/>
<path fill-rule="evenodd" clip-rule="evenodd" d="M104.477 34.7238C102.731 34.0367 102.09 33.1153 102.09 31.5225C102.09 29.0552 103.276 28.4461 106.4 28.4461C107.522 28.4461 108.963 28.5242 110.245 28.9303L110.053 30.8509C109.108 30.8354 107.65 30.8041 106.368 30.8041C105.391 30.8041 105.07 30.8822 105.07 31.4758C105.07 31.9752 105.342 32.1626 106.127 32.4281L108.162 33.1934C109.973 33.896 110.582 34.8487 110.582 36.426C110.582 38.862 109.508 39.627 106.256 39.627C105.519 39.627 104.013 39.596 102.202 39.1585L102.378 37.0815C104.349 37.1286 105.583 37.1599 106.24 37.1599C107.297 37.1599 107.57 37.0347 107.57 36.4882C107.57 35.973 107.345 35.8169 106.688 35.5823L104.477 34.7238Z" fill="#E67738"/>
</svg>
