<svg width="204" height="54" viewBox="0 0 204 54" fill="none" xmlns="http://www.w3.org/2000/svg">
<path fill-rule="evenodd" clip-rule="evenodd" d="M190.958 49.8834C190.958 51.6524 189.534 53.082 187.771 53.082C186.013 53.082 184.588 51.6524 184.588 49.8834C184.588 48.122 186.013 46.6953 187.771 46.6953C189.534 46.6953 190.958 48.122 190.958 49.8834" fill="white"/>
<path fill-rule="evenodd" clip-rule="evenodd" d="M184.113 28.931C184.453 30.2641 185.264 31.3385 185.988 32.4614C186.53 33.3039 187.074 34.1451 187.622 34.9834C187.73 35.1485 187.859 35.2952 187.983 35.454C189.371 34.8438 190.507 34.7669 191.878 34.7791C192.867 35.0089 193.881 35.1531 194.891 35.2617C195.139 35.2893 195.477 35.0942 195.674 34.899C196.292 34.2876 197.221 34.0419 197.881 34.5718C198.757 35.2739 199.788 35.5463 200.803 35.8351C202.094 36.2012 202.681 37.1201 203.028 38.2848C203.092 38.4904 203.017 38.7403 203.008 38.9551C202.459 39.2171 201.979 39.1611 201.423 39.0098C199.94 38.6041 198.425 38.3153 196.924 37.9735C196.633 37.9099 196.338 37.7131 196.062 37.7432C195.589 37.7963 195.112 37.4072 194.682 37.6145C193.731 38.07 192.813 37.8656 191.77 37.9492C191.431 37.9747 190.778 37.9492 190.489 38.1063C189.457 38.6693 188.5 38.6705 187.366 38.6872C186.972 38.6918 186.899 38.8477 186.506 38.8644C186.339 38.8719 186.028 38.8326 185.926 38.7207C185.274 38.0186 184.374 38.3742 183.857 37.5798C183.513 37.0545 183.145 36.8744 182.589 36.8731C181.84 36.8702 181.227 36.5781 180.481 36.6145C179.869 36.6445 179.378 36.2601 178.942 36.1895C178.739 35.9308 176.956 35.6111 176.624 35.245C176.6 35.342 176.577 35.4372 176.553 35.5313C176.398 36.1623 176.252 36.7219 176.134 37.2906C176.018 37.8401 175.967 38.4031 175.848 38.9522C175.819 39.0792 175.641 39.2577 175.521 39.2668C175.097 39.2999 175.324 39.2848 174.9 39.2288C174.292 39.149 174.578 39.1076 173.97 39.0128C173.743 38.9781 173.382 38.9417 173.294 39.0608C173.111 39.3141 173.043 39.6058 173.181 40.0053C173.774 41.712 174.335 43.4383 174.776 45.1905C175.143 46.6461 175.355 48.1425 175.582 49.6286C175.678 50.2579 175.887 50.7916 176.239 51.3244C176.436 51.6199 176.398 52.09 176.405 52.482C176.405 52.5727 176.164 52.7406 176.024 52.7528C174.573 52.8723 173.122 52.9843 171.669 53.0616C170.908 53.1009 170.147 53.0674 169.367 53.0674C169.239 52.5785 169.451 52.3156 169.866 52.1899C170.181 52.0963 170.501 52.0344 170.819 51.9642C170.927 51.9404 171.078 51.9659 171.136 51.9023C171.704 51.273 172.665 51.0854 173.025 50.2291C173.074 50.1125 173.086 49.955 173.057 49.8329C172.892 49.176 172.769 48.489 172.016 48.2031C171.954 48.1789 171.333 46.519 171.293 46.4388C170.74 45.346 171.179 45.7229 170.626 44.6293C170.601 44.5808 170.576 44.529 170.564 44.4763C170.241 43.045 169.642 41.9301 169.209 40.6831C168.666 39.1264 168.988 37.5225 168.736 35.9625C168.646 35.4072 168.868 34.9199 168.92 34.4188C169.111 32.5475 170.188 31.0355 170.767 29.3305C171.007 28.6318 171.082 27.964 171.095 27.2185C171.116 25.979 171.431 24.7429 171.656 23.5113C171.939 21.968 172.109 20.4214 172.102 18.8464C172.096 17.7799 172.234 16.7055 172.366 15.6449C172.47 14.8082 172.086 14.2967 171.221 14.262C171.056 14.2558 170.892 14.2361 170.729 14.2257C170.35 14.1998 170.07 14.0456 169.975 13.6477C169.876 13.2541 169.628 13.15 169.242 13.2027C167.955 13.3811 166.666 13.5947 165.371 13.6841C164.648 13.7326 163.876 13.672 163.186 13.4659C161.434 12.9486 159.747 13.186 158.046 13.6402C157.452 13.8007 156.189 13.3903 155.702 12.8579C156.217 12.3314 156.725 11.7881 157.268 11.2824C157.38 11.1767 157.646 11.1571 157.809 11.2043C159.213 11.6142 160.655 11.6744 162.081 11.5127C162.968 11.4116 163.879 11.1525 164.681 10.7651C165.702 10.2703 166.74 10.2536 167.811 10.2461C168.123 10.2448 168.434 10.1629 168.745 10.1115C168.834 10.0981 168.933 10.0267 169.004 10.048C169.645 10.2419 170.113 9.83903 170.63 9.59581C171.352 9.25355 172.067 8.89667 172.809 8.60916C173.207 8.45454 173.651 8.39603 174.08 8.358C174.71 8.30033 176.785 7.12939 176.602 6.51508C176.499 6.1582 176.494 5.81302 176.294 5.49834C176.205 4.25593 176.117 3.57059 176.266 2.62029C176.434 1.54463 177.041 1.021 177.997 0.623165C179.383 0.0481398 180.669 0.188971 181.954 0.835038C182.119 0.918199 182.273 1.07115 182.369 1.22828C183.048 2.35116 182.885 3.81882 182.926 5.1005C182.936 5.43022 182.807 5.76161 182.778 6.08674C182.645 7.52722 181.508 8.49716 182.47 9.33086C183.462 10.1905 184.561 11.9832 185.558 12.8366C185.741 12.9937 185.846 13.2649 185.945 13.5006C186.33 14.4192 186.68 15.3527 187.08 16.2621C187.357 16.896 187.808 17.4711 187.984 18.1263C188.299 19.3006 189.13 20.1026 189.775 21.0512C190.374 21.9271 190.812 22.9167 191.319 23.8548C191.897 24.9217 192.465 25.9928 193.057 27.0505C193.417 27.6949 194.01 28.0656 194.652 28.4045C195.357 28.7751 196.062 29.1868 196.668 29.6983C197.048 30.0188 197.321 30.532 197.491 31.0101C197.559 31.2052 197.27 31.5863 197.059 31.7982C196.78 32.0769 196.583 31.7756 196.391 31.5851C195.817 31.013 195.347 30.3067 194.496 30.0873C194.43 30.069 194.362 30.0602 194.151 30.0205C194.426 30.5153 194.636 30.8905 194.844 31.2692C194.787 31.3051 194.732 31.3398 194.676 31.3745C193.853 30.8742 193.036 30.2733 192.616 29.4308C191.654 27.5102 190.247 25.9669 188.731 24.5268C187.509 23.363 186.744 21.9467 186.018 20.4097C185.538 20.8452 185.186 20.5852 184.796 20.2492C184.39 19.8982 183.92 19.6241 183.481 19.3202C182.955 19.9542 182.444 20.5472 181.961 21.1628C181.491 21.7637 181.367 23.4252 181.807 23.9276" fill="white"/>
<path fill-rule="evenodd" clip-rule="evenodd" d="M172.016 48.2034C172.016 48.2034 169.608 42.9638 169.31 40.9663C169.012 38.9691 169.836 41.3766 169.836 41.3766L172.696 45.3847L172.016 48.2034Z" fill="white"/>
<path fill-rule="evenodd" clip-rule="evenodd" d="M187.274 38.7213C187.274 38.7213 191.513 38.6519 195.455 37.6502C199.398 36.6486 192.193 37.1174 192.193 37.1174L187.274 38.6168" fill="white"/>
<path fill-rule="evenodd" clip-rule="evenodd" d="M176.624 35.1242L179.229 34.9365L187.342 37.1439V38.5952C187.342 38.5952 187.372 39.4134 186.188 38.8359C185.097 38.3048 177.987 35.8049 177.987 35.8049L180.704 36.6946L176.624 35.2453L181.756 36.507L179.581 34.9365" fill="white"/>
<path fill-rule="evenodd" clip-rule="evenodd" d="M26.2268 34.1027C26.0554 34.687 25.5757 35.099 24.8899 35.099H21.0844C20.4332 35.099 19.8847 34.687 19.7474 34.0685L16.3194 16.656C16.1479 15.7629 15.9765 14.8703 15.8393 13.9773H15.1197C14.9478 14.8703 14.811 15.7976 14.6054 16.656L11.2111 34.0685C11.1085 34.687 10.5258 35.099 9.8742 35.099H6.03486C5.38329 35.099 4.86938 34.687 4.73214 34.1027L0.207031 11.4014H3.84072L7.23455 29.4662C7.40599 30.3939 7.50902 31.3898 7.64626 32.4888H8.43465C8.57189 31.3898 8.74292 30.4282 8.94898 29.4662L12.3428 12.5347C12.4796 11.8819 12.9598 11.4014 13.6455 11.4014H17.3138C17.965 11.4014 18.4793 11.8819 18.6161 12.5347L21.9758 29.5009C22.1814 30.4967 22.3529 31.5268 22.4901 32.4888H23.2785C23.4499 31.5268 23.553 30.4624 23.724 29.5351L27.1178 11.4014H30.7519L26.2268 34.1027Z" fill="white"/>
<path fill-rule="evenodd" clip-rule="evenodd" d="M48.8742 34.8927C45.7544 35.1677 42.1207 35.1677 38.7269 35.1677C35.7785 35.1677 33.9961 33.5191 33.9619 30.9089V15.5914C33.9961 12.9816 35.8128 11.333 38.7269 11.333C42.1207 11.333 45.7544 11.333 48.8742 11.6076L48.7027 14.2863H39.3096C37.9385 14.2863 37.4242 14.8705 37.4242 16.4844V21.2242H47.4V24.0057H37.4242V30.0506C37.4242 31.6645 37.9385 32.2483 39.3096 32.2483H48.7027L48.8742 34.8927Z" fill="white"/>
<path fill-rule="evenodd" clip-rule="evenodd" d="M84.2882 11.4014C85.1796 11.4014 85.6598 11.9166 85.694 12.8097L86.6534 35.0986H83.2258L82.4027 14.2518H81.717L76.9178 31.1148C76.7117 31.9046 76.232 32.2824 75.4436 32.2824H72.4611C71.6723 32.2824 71.1584 31.9046 70.9527 31.1148L66.1189 14.2518H65.4674L64.679 35.0986H61.2852L62.1766 12.8097C62.2108 11.9166 62.6909 11.4014 63.5823 11.4014H67.3875C68.1759 11.4014 68.5871 11.8134 68.827 12.569L72.8382 26.444C73.1469 27.543 73.3867 28.5736 73.6266 29.6379H74.2435C74.4838 28.5389 74.7237 27.543 75.0665 26.4097L79.0431 12.569C79.283 11.8134 79.7289 11.4014 80.5515 11.4014H84.2882Z" fill="white"/>
<path fill-rule="evenodd" clip-rule="evenodd" d="M95.4269 27.9551L93.2328 35.0986H89.7363L97.1414 12.3287C97.3124 11.7445 97.7925 11.4014 98.4099 11.4014H101.906C102.489 11.4014 103.003 11.7445 103.14 12.3287L110.579 35.0986H107.049L104.855 27.9551H95.4269ZM101.186 15.969C101.015 15.3505 100.775 14.6639 100.604 14.0454H99.678L99.1294 15.969L96.353 24.9671H103.963L101.186 15.969Z" fill="white"/>
<path fill-rule="evenodd" clip-rule="evenodd" d="M117.046 24.143C117.183 24.9675 117.286 25.7916 117.286 26.5814V35.099H113.857V11.4014H117.286V18.6824C117.286 19.6097 117.217 20.5027 117.046 21.3615H119.72L126.679 11.4014H130.416L123.731 21.0865C123.285 21.7393 122.942 22.1171 122.291 22.7347V22.8379C122.976 23.4221 123.525 24.0398 123.936 24.624L130.861 35.099H127.056L119.72 24.143H117.046Z" fill="white"/>
<path fill-rule="evenodd" clip-rule="evenodd" d="M148.291 34.8927C145.171 35.1677 141.538 35.1677 138.144 35.1677C135.196 35.1677 133.413 33.5191 133.379 30.9089V15.5914C133.413 12.9816 135.23 11.333 138.144 11.333C141.538 11.333 145.171 11.333 148.291 11.6076L148.12 14.2863H138.727C137.355 14.2863 136.841 14.8705 136.841 16.4844V21.2242H146.817V24.0057H136.841V30.0506C136.841 31.6645 137.355 32.2483 138.727 32.2483H148.12L148.291 34.8927Z" fill="white"/>
<path fill-rule="evenodd" clip-rule="evenodd" d="M5.76342 41.3287C5.07723 41.3287 4.73434 41.6509 4.73434 42.2527V44.3359H10.2022V47.1287H4.73434V53.0791H0.703125V41.4144C0.703125 39.4599 2.09678 38.1924 4.11239 38.1924C6.47089 38.1924 9.19438 38.1924 11.1883 38.4502L10.9956 41.3287H5.76342Z" fill="white"/>
<path fill-rule="evenodd" clip-rule="evenodd" d="M25.893 45.6679C25.893 51.7044 24.1348 53.3802 19.2459 53.3802C14.3567 53.3802 12.6201 51.7044 12.6201 45.6679C12.6201 39.6318 14.3567 37.9561 19.2459 37.9561C24.1348 37.9561 25.893 39.6318 25.893 45.6679M16.8441 45.6679C16.8441 49.3199 17.3588 50.2865 19.2459 50.2865C21.1326 50.2865 21.6474 49.3199 21.6474 45.6679C21.6474 42.0163 21.1326 41.0497 19.2459 41.0497C17.3588 41.0497 16.8441 42.0163 16.8441 45.6679" fill="white"/>
<path fill-rule="evenodd" clip-rule="evenodd" d="M41.142 45.6679C41.142 51.7044 39.3838 53.3802 34.495 53.3802C29.6057 53.3802 27.8691 51.7044 27.8691 45.6679C27.8691 39.6318 29.6057 37.9561 34.495 37.9561C39.3838 37.9561 41.142 39.6318 41.142 45.6679M32.0931 45.6679C32.0931 49.3199 32.6078 50.2865 34.495 50.2865C36.3821 50.2865 36.8964 49.3199 36.8964 45.6679C36.8964 42.0163 36.3821 41.0497 34.495 41.0497C32.6078 41.0497 32.0931 42.0163 32.0931 45.6679" fill="white"/>
<path fill-rule="evenodd" clip-rule="evenodd" d="M51.0244 40.9791V52.6527H46.8683V40.9791H42.4912V37.873H55.4234V40.9791H51.0244Z" fill="white"/>
<path fill-rule="evenodd" clip-rule="evenodd" d="M65.528 45.5349C67.8537 45.7239 68.6718 47.0668 68.6718 49.3757C68.6718 52.3562 67.0779 53.1536 63.4389 53.1536C60.4031 53.1536 58.702 53.1323 56.6992 52.9854V38.5042C58.508 38.3568 60.0584 38.3359 62.7498 38.3359C66.7554 38.3359 68.1767 39.1337 68.1767 42.1138C68.1767 44.1916 67.4227 45.2409 65.528 45.4091V45.5349ZM62.6422 44.2753C63.9558 44.2753 64.322 43.9609 64.322 42.6597C64.322 41.4001 63.9345 41.1062 62.5349 41.1062H60.6612V44.2753H62.6422ZM62.7285 50.3829C64.2357 50.3829 64.6236 50.0473 64.6236 48.5991C64.6236 47.0668 64.2357 46.6891 62.6853 46.6891H60.6612V50.3621L62.7285 50.3829Z" fill="white"/>
<path fill-rule="evenodd" clip-rule="evenodd" d="M74.8189 49.5436L73.9359 52.9855H69.8018L73.8714 39.5324C74.0226 38.9028 74.5823 38.5039 75.2282 38.5039H78.9753C79.6208 38.5039 80.1809 38.9028 80.353 39.5324L84.4013 52.9855H80.2668L79.3841 49.5436H74.8189ZM77.683 42.9743C77.5753 42.4917 77.4459 41.9458 77.4031 41.4632H76.8217C76.7354 41.9458 76.6278 42.4917 76.5205 42.9743L75.5725 46.6893H78.6305L77.683 42.9743Z" fill="white"/>
<path fill-rule="evenodd" clip-rule="evenodd" d="M89.849 48.9359C89.849 49.5234 90.172 49.8382 90.8611 49.8382H95.8997L96.0936 52.7975C93.9836 53.0494 91.5716 53.0494 89.2676 53.0494C87.0064 53.0494 85.8008 51.7482 85.8008 49.8594V38.5049H89.849V48.9359Z" fill="white"/>
<path fill-rule="evenodd" clip-rule="evenodd" d="M101.935 48.9359C101.935 49.5234 102.258 49.8382 102.947 49.8382H107.986L108.18 52.7975C106.07 53.0494 103.658 53.0494 101.354 53.0494C99.0923 53.0494 97.8867 51.7482 97.8867 49.8594V38.5049H101.935V48.9359Z" fill="white"/>
<path fill-rule="evenodd" clip-rule="evenodd" d="M120.687 52.8177C118.577 53.0488 115.778 53.0488 113.323 53.0488C111.299 53.0488 109.942 51.8104 109.942 49.9425V41.5473C109.942 39.6793 111.321 38.4414 113.323 38.4414C115.778 38.4414 118.577 38.4414 120.687 38.6721L120.493 41.5052H114.916C114.314 41.5052 113.991 41.82 113.991 42.4079V44.1709H119.697V46.8783H113.991V49.0818C113.991 49.6698 114.314 49.9846 114.916 49.9846H120.493L120.687 52.8177Z" fill="white"/>
<path fill-rule="evenodd" clip-rule="evenodd" d="M131.278 52.9864L130.223 48.621C130.008 47.7815 129.642 47.5296 128.823 47.5296H126.993V52.9864H123.01V38.5048C124.904 38.3162 126.196 38.2949 129.018 38.2949C133.173 38.2949 134.939 39.3026 134.939 42.6604C134.939 44.5283 134.228 45.9344 132.01 46.1651V46.2913C132.807 46.417 133.949 46.858 134.293 48.516L135.52 52.9864H131.278ZM128.931 44.6544C130.46 44.6544 130.869 44.2976 130.869 42.9123C130.869 41.5269 130.46 41.1701 128.931 41.1701H126.993V44.6544H128.931Z" fill="white"/>
<path fill-rule="evenodd" clip-rule="evenodd" d="M140.417 46.6687C138.07 45.7452 137.208 44.5069 137.208 42.3662C137.208 39.0501 138.802 38.2314 143.001 38.2314C144.508 38.2314 146.446 38.3364 148.169 38.8823L147.91 41.4635C146.64 41.4426 144.68 41.4006 142.957 41.4006C141.644 41.4006 141.213 41.5055 141.213 42.3033C141.213 42.9745 141.579 43.2265 142.634 43.5833L145.369 44.6118C147.802 45.5562 148.621 46.8365 148.621 48.9564C148.621 52.2305 147.178 53.2585 142.807 53.2585C141.816 53.2585 139.792 53.2169 137.359 52.6289L137.596 49.8375C140.245 49.9008 141.903 49.9428 142.785 49.9428C144.207 49.9428 144.573 49.7746 144.573 49.0401C144.573 48.3476 144.271 48.1378 143.388 47.8226L140.417 46.6687Z" fill="white"/>
</svg>
