<svg xmlns="http://www.w3.org/2000/svg" width="18" height="15" viewBox="0 0 18 15">
  <path id="Path" d="M17.5.277a7.26,7.26,0,0,1-2.347.917A3.643,3.643,0,0,0,12.462,0,3.741,3.741,0,0,0,8.77,3.787a3.863,3.863,0,0,0,.1.862A10.4,10.4,0,0,1,1.253.691,3.855,3.855,0,0,0,.753,2.6,3.81,3.81,0,0,0,2.4,5.748,3.62,3.62,0,0,1,.722,5.276v.047A3.765,3.765,0,0,0,3.686,9.036a3.521,3.521,0,0,1-.973.133A3.6,3.6,0,0,1,2.018,9.1,3.706,3.706,0,0,0,5.467,11.73,7.29,7.29,0,0,1,.881,13.352,7.4,7.4,0,0,1,0,13.3,10.28,10.28,0,0,0,5.661,15c6.793,0,10.507-5.769,10.507-10.774,0-.165,0-.329-.009-.491A7.583,7.583,0,0,0,18,1.776a7.233,7.233,0,0,1-2.12.6A3.781,3.781,0,0,0,17.5.277Z" fill="#fff"/>
</svg>
