<svg id="Instagram_Black" data-name="Instagram/Black" xmlns="http://www.w3.org/2000/svg" width="18" height="15" viewBox="0 0 18 15">
  <path id="Instagram" d="M5.289,14.955A7.825,7.825,0,0,1,3.1,14.606a4.57,4.57,0,0,1-1.594-.865A3.684,3.684,0,0,1,.473,12.413a4.744,4.744,0,0,1-.419-1.821C.01,9.787,0,9.52,0,7.5S.01,5.213.054,4.408A4.744,4.744,0,0,1,.473,2.587,3.684,3.684,0,0,1,1.511,1.259,4.57,4.57,0,0,1,3.1.394,7.831,7.831,0,0,1,5.289.045C6.256.009,6.576,0,9,0s2.744.009,3.71.045A7.831,7.831,0,0,1,14.9.394a4.572,4.572,0,0,1,1.594.865,3.682,3.682,0,0,1,1.038,1.328,4.74,4.74,0,0,1,.419,1.821c.044.8.054,1.065.054,3.092s-.01,2.293-.054,3.092a4.737,4.737,0,0,1-.419,1.821,3.688,3.688,0,0,1-1.038,1.329,4.577,4.577,0,0,1-1.594.865,7.819,7.819,0,0,1-2.185.349C11.751,14.991,11.433,15,9,15S6.249,14.991,5.289,14.955ZM5.363,1.4a5.867,5.867,0,0,0-1.671.258,2.894,2.894,0,0,0-1.035.561,2.332,2.332,0,0,0-.673.862,3.561,3.561,0,0,0-.31,1.393c-.043.79-.052,1.027-.052,3.031s.009,2.241.052,3.03a3.561,3.561,0,0,0,.31,1.393,2.332,2.332,0,0,0,.673.862,2.894,2.894,0,0,0,1.035.561,5.867,5.867,0,0,0,1.671.258c.953.036,1.238.044,3.637.044s2.684-.008,3.637-.044a5.867,5.867,0,0,0,1.671-.258,2.894,2.894,0,0,0,1.035-.561,2.332,2.332,0,0,0,.673-.862,3.561,3.561,0,0,0,.31-1.393c.044-.794.053-1.032.053-3.03s-.009-2.237-.053-3.031a3.561,3.561,0,0,0-.31-1.393,2.332,2.332,0,0,0-.673-.862,2.894,2.894,0,0,0-1.035-.561A5.867,5.867,0,0,0,12.637,1.4C11.689,1.359,11.4,1.351,9,1.351S6.311,1.359,5.363,1.4Zm.369,8.828A3.535,3.535,0,0,1,4.378,7.5,3.535,3.535,0,0,1,5.732,4.777,5.093,5.093,0,0,1,9,3.649a5.094,5.094,0,0,1,3.268,1.128A3.535,3.535,0,0,1,13.622,7.5a3.536,3.536,0,0,1-1.353,2.723A5.1,5.1,0,0,1,9,11.351,5.094,5.094,0,0,1,5.732,10.224ZM6,7.5A2.788,2.788,0,0,0,9,10a2.788,2.788,0,0,0,3-2.5A2.788,2.788,0,0,0,9,5,2.788,2.788,0,0,0,6,7.5Zm6.724-4a1,1,0,0,1,1.08-.9,1,1,0,0,1,1.08.9,1,1,0,0,1-1.08.9A1,1,0,0,1,12.724,3.5Z" fill="#ff7531"/>
</svg>
