<svg id="left-quote" xmlns="http://www.w3.org/2000/svg" width="297" height="208" viewBox="0 0 297 208">
  <path id="Shape" d="M0,138.28C0,59.757,31.669,7.671,33.017,5.492L36.415,0H87.141L82.96,14.79C78.875,29.245,72.4,55.363,72.4,63.911c0,2.086.062,3.611.145,4.717A69.62,69.62,0,0,1,139,138.28a69.5,69.5,0,1,1-139,0Z" transform="translate(158)" fill="#5a5a5a" opacity="0.2"/>
  <path id="Shape-2" data-name="Shape" d="M0,138.28C0,59.757,31.669,7.671,33.017,5.492L36.415,0H87.141L82.96,14.79C78.875,29.245,72.4,55.363,72.4,63.911c0,2.086.062,3.611.145,4.717A69.62,69.62,0,0,1,139,138.28a69.5,69.5,0,1,1-139,0Z" fill="#5a5a5a" opacity="0.2"/>
</svg>
