   <svg
        width="25px"
        height="25px"
        viewBox="0 0 56 56"
        version="1.1"
        xmlns="http://www.w3.org/2000/svg">
        <title>Path</title>
        <desc>Created with Sketch.</desc>
        <g
            id="Page-1"
            stroke="none"
            strokeWidth="1"
            fill="none"
            fillRule="evenodd">
            <g
                id="Contact-Us_21"
                transform="translate(-693.000000, -683.000000)"
                fill="#FF7531"
                fillRule="nonzero">
                <g
                    id="twitter-square"
                    transform="translate(693.000000, 683.000000)">
                    <path
                        d="M46,0 C51.0810186,0 55.1999989,4.11898022 55.1999989,9.19999981 L55.1999989,46 C55.1999989,51.0810186 51.0810186,55.1999989 46,55.1999989 L9.19999981,55.1999989 C4.11898022,55.1999989 0,51.0810186 0,46 L0,9.19999981 C0,4.11898022 4.11898022,0 9.19999981,0 L46,0 Z M35.8339993,13.339983 C33.5270571,13.3351469 31.3447001,14.3861089 29.9101317,16.1927685 C28.4755633,17.9994281 27.9464911,20.3631722 28.4739994,22.6089995 C22.3995352,22.3073563 16.7391501,19.4395393 12.9029997,14.7199997 C10.8728958,18.1662303 11.9052353,22.5992176 15.2489997,24.7939995 C14.0496396,24.7650504 12.8746064,24.4496052 11.8219998,23.8739995 L11.8219998,23.9429995 C11.8186566,27.5445894 14.3616341,30.6462514 17.8939996,31.3489994 C16.7771589,31.655877 15.6048992,31.7030821 14.4669997,31.4869993 C15.4588642,34.5638328 18.295807,36.6707479 21.5279996,36.7309992 C18.3646686,39.215588 14.3434504,40.3408672 10.3499998,39.8589992 C13.8019784,42.0728445 17.8181186,43.2465475 21.9189995,43.2400264 C35.8109993,43.2400264 43.4009991,31.7399993 43.4009991,21.7579995 L43.4009991,20.7919996 C44.873347,19.7221027 46.1429204,18.3980077 47.149999,16.8819997 C45.7929991,17.4799996 44.3439991,17.8939996 42.8029991,18.0779996 C44.3669991,17.1349996 45.5629991,15.6629997 46.137999,13.8919997 C44.6659991,14.7659997 43.0559991,15.3869997 41.3309991,15.7319997 C39.9022659,14.2037644 37.9030737,13.3374477 35.8109993,13.339983 L35.8339993,13.339983 Z"
                        id="Shape"></path>
                </g>
            </g>
        </g>
    </svg>