    <svg
        width="25px"
        height="25px"
        viewBox="0 0 56 56"
        version="1.1"
        xmlns="http://www.w3.org/2000/svg">
        <title>Path</title>
        <desc>Created with Sketch.</desc>
        <g
            id="Page-1"
            stroke="none"
            strokeWidth="1"
            fill="none"
            fillRule="evenodd">
            <g
                id="Contact-Us_21"
                transform="translate(-569.000000, -683.000000)"
                fill="#FF7531"
                fillRule="nonzero">
                <g
                    id="facebook-square"
                    transform="translate(569.000000, 683.000000)">
                    <path
                        d="M46,0 C51.0810186,0 55.1999989,4.11898022 55.1999989,9.19999981 L55.1999989,46 C55.1999989,51.0810186 51.0810186,55.1999989 46,55.1999989 L9.19999981,55.1999989 C4.11898022,55.1999989 0,51.0810186 0,46 L0,9.19999981 C0,4.11898022 4.11898022,0 9.19999981,0 L46,0 Z M36.7999992,16.7439997 L36.7999992,10.3499998 L31.5329993,10.3499998 C26.7029994,10.3499998 23.6669995,14.0299997 23.6669995,19.2969996 L23.6669995,23.1379995 L18.3999996,23.1379995 L18.3999996,29.5089994 L23.6669995,29.5089994 L23.6669995,44.8499998 L30.2219994,44.8499998 L30.2219994,29.5089994 L35.4889993,29.5089994 L36.7999992,23.1379995 L30.2219994,23.1379995 L30.2219994,20.5619996 C30.2219994,18.0319996 31.5559993,16.7439997 34.1779993,16.7439997 L36.7999992,16.7439997 Z"
                        id="Shape"></path>
                </g>
            </g>
        </g>
    </svg>