<svg xmlns="http://www.w3.org/2000/svg" width="21.89" height="21.93" viewBox="0 0 21.89 21.93">
  <path id="Path" d="M19.888,14.92v3a2,2,0,0,1-2.18,2,19.79,19.79,0,0,1-8.63-3.07,19.5,19.5,0,0,1-6-6A19.79,19.79,0,0,1,.008,2.18,2,2,0,0,1,2,0H5A2,2,0,0,1,7,1.72a12.84,12.84,0,0,0,.7,2.81,2,2,0,0,1-.45,2.11L5.978,7.91a16,16,0,0,0,6,6l1.27-1.27a2,2,0,0,1,2.11-.45,12.84,12.84,0,0,0,2.81.7A2,2,0,0,1,19.888,14.92Z" transform="translate(1.001 1)" fill="none" stroke="#fff" stroke-linecap="round" stroke-linejoin="round" stroke-miterlimit="10" stroke-width="2"/>
</svg>
